<svg width="1173" height="1500" viewBox="0 0 1173 1500" fill="none" xmlns="http://www.w3.org/2000/svg">
<path d="M538.117 1500C436.784 1500 345.451 1477.33 264.117 1432C182.784 1385.33 118.117 1320.67 70.1172 1238C23.4505 1155.33 0.117191 1058 0.117191 946C0.117191 832.667 23.4505 734.667 70.1172 652C118.117 569.333 182.784 505.333 264.117 460C345.451 414.667 436.784 392 538.117 392C628.784 392 708.117 412 776.117 452C844.117 492 896.784 552.667 934.117 634C971.451 715.333 990.117 819.333 990.117 946C990.117 1071.33 972.117 1175.33 936.117 1258C900.117 1339.33 848.117 1400 780.117 1440C713.451 1480 632.784 1500 538.117 1500ZM592.117 1244C642.784 1244 688.784 1232 730.117 1208C771.451 1184 804.117 1150 828.117 1106C853.451 1060.67 866.117 1007.33 866.117 946C866.117 883.333 853.451 830 828.117 786C804.117 742 771.451 708 730.117 684C688.784 660 642.784 648 592.117 648C540.117 648 493.451 660 452.117 684C410.784 708 377.451 742 352.117 786C328.117 830 316.117 883.333 316.117 946C316.117 1007.33 328.117 1060.67 352.117 1106C377.451 1150 410.784 1184 452.117 1208C493.451 1232 540.117 1244 592.117 1244ZM874.117 1484V1264L880.117 944L860.117 626V-8.67844e-05H1172.12V1484H874.117Z" fill="url(#paint0_linear_370_2)" fill-opacity="0.07"/>
<defs>
<linearGradient id="paint0_linear_370_2" x1="-228.051" y1="424" x2="1023.12" y2="1441.96" gradientUnits="userSpaceOnUse">
<stop stop-color="#35C25C" stop-opacity="0"/>
<stop offset="0.333333" stop-color="#001AFF" stop-opacity="0.8"/>
<stop offset="1" stop-color="#FFB800"/>
</linearGradient>
</defs>
</svg>
