<svg width="1173" height="1500" viewBox="0 0 1173 1500" fill="none" xmlns="http://www.w3.org/2000/svg">
<path d="M636.07 1500C541.404 1500 460.07 1480 392.07 1440C324.07 1400 272.07 1339.33 236.07 1258C200.07 1175.33 182.07 1071.33 182.07 946C182.07 819.333 200.737 715.333 238.07 634C276.737 552.667 330.07 492 398.07 452C466.07 412 545.404 392 636.07 392C737.404 392 828.07 414.667 908.07 460C989.404 505.333 1053.4 569.333 1100.07 652C1148.07 734.667 1172.07 832.667 1172.07 946C1172.07 1058 1148.07 1155.33 1100.07 1238C1053.4 1320.67 989.404 1385.33 908.07 1432C828.07 1477.33 737.404 1500 636.07 1500ZM0.0703212 1484V-8.67844e-05H312.07V626L292.07 944L298.07 1264V1484H0.0703212ZM582.07 1244C634.07 1244 680.07 1232 720.07 1208C761.404 1184 794.07 1150 818.07 1106C843.404 1060.67 856.07 1007.33 856.07 946C856.07 883.333 843.404 830 818.07 786C794.07 742 761.404 708 720.07 684C680.07 660 634.07 648 582.07 648C530.07 648 483.404 660 442.07 684C400.737 708 368.07 742 344.07 786C320.07 830 308.07 883.333 308.07 946C308.07 1007.33 320.07 1060.67 344.07 1106C368.07 1150 400.737 1184 442.07 1208C483.404 1232 530.07 1244 582.07 1244Z" fill="url(#paint0_linear_370_2)" fill-opacity="0.07"/>
<defs>
<linearGradient id="paint0_linear_370_2" x1="-303.589" y1="424" x2="946.839" y2="1438.42" gradientUnits="userSpaceOnUse">
<stop stop-color="#35C25C" stop-opacity="0"/>
<stop offset="0.333333" stop-color="#00FF19" stop-opacity="0.8"/>
<stop offset="1" stop-color="#0500FF"/>
</linearGradient>
</defs>
</svg>
