<svg width="1191" height="1496" viewBox="0 0 1191 1496" fill="none" xmlns="http://www.w3.org/2000/svg">
<path d="M586.305 1496C484.971 1496 386.971 1483.33 292.305 1458C198.971 1434 120.971 1397.33 58.3047 1348L182.305 1124C227.638 1161.33 284.971 1190.67 354.305 1212C424.971 1234.67 494.305 1246 562.305 1246C672.971 1246 752.971 1221.33 802.305 1172C852.971 1122.67 878.305 1049.33 878.305 952V790L898.305 520L894.305 248V15.9999H1190.3V912C1190.3 1112 1138.3 1259.33 1034.3 1354C930.305 1448.67 780.971 1496 586.305 1496ZM538.305 1040C438.305 1040 347.638 1018.67 266.305 976C186.305 932 121.638 871.333 72.3047 794C24.3047 715.333 0.304691 624 0.304691 520C0.304691 414.667 24.3047 323.333 72.3047 246C121.638 167.333 186.305 106.667 266.305 64C347.638 21.3333 438.305 -7.62939e-06 538.305 -7.62939e-06C628.971 -7.62939e-06 708.971 18.6667 778.305 56C847.638 92 901.638 148.667 940.305 226C978.971 302 998.305 400 998.305 520C998.305 638.667 978.971 736.667 940.305 814C901.638 890 847.638 946.667 778.305 984C708.971 1021.33 628.971 1040 538.305 1040ZM600.305 784C654.971 784 703.638 773.333 746.305 752C788.971 729.333 822.305 698 846.305 658C870.305 618 882.305 572 882.305 520C882.305 466.667 870.305 420.667 846.305 382C822.305 342 788.971 311.333 746.305 290C703.638 267.333 654.971 256 600.305 256C545.638 256 496.971 267.333 454.305 290C411.638 311.333 377.638 342 352.305 382C328.305 420.667 316.305 466.667 316.305 520C316.305 572 328.305 618 352.305 658C377.638 698 411.638 729.333 454.305 752C496.971 773.333 545.638 784 600.305 784Z" fill="url(#paint0_linear_370_2)" fill-opacity="0.07"/>
<defs>
<linearGradient id="paint0_linear_370_2" x1="-225.9" y1="32" x2="1028.12" y2="1064.06" gradientUnits="userSpaceOnUse">
<stop stop-color="#00FF47" stop-opacity="0"/>
<stop offset="0.192708" stop-color="#00C2FF" stop-opacity="0.213542"/>
<stop offset="1" stop-color="#DB00FF"/>
</linearGradient>
</defs>
</svg>
