<svg width="1119" height="1080" viewBox="0 0 1119 1080" fill="none" xmlns="http://www.w3.org/2000/svg">
<path d="M552.094 1163C442.76 1163 338.094 1147.67 238.094 1117C138.094 1085 58.7604 1044.33 0.0937503 995L90.0938 793C146.094 837 215.427 873.667 298.094 903C380.76 932.333 465.427 947 552.094 947C625.427 947 684.76 939 730.094 923C775.427 907 808.76 885.667 830.094 859C851.427 831 862.094 799.667 862.094 765C862.094 722.333 846.76 688.333 816.094 663C785.427 636.333 745.427 615.667 696.094 601C648.094 585 594.094 570.333 534.094 557C475.427 543.667 416.094 528.333 356.094 511C297.427 492.333 243.427 469 194.094 441C146.094 411.667 106.76 373 76.0938 325C45.4271 277 30.0938 215.667 30.0938 141C30.0938 64.9999 50.0938 -4.33338 90.0938 -67C131.427 -131 193.427 -181.667 276.094 -219C360.094 -257.667 466.094 -277 594.094 -277C678.094 -277 761.427 -266.333 844.094 -245C926.76 -223.667 998.76 -193 1060.09 -153L978.094 48.9999C915.427 11.6666 850.76 -15.6667 784.094 -33C717.427 -51.6667 653.427 -61.0001 592.094 -61.0001C520.094 -61.0001 461.427 -52.3334 416.094 -35.0001C372.094 -17.6667 339.427 4.99995 318.094 33C298.094 60.9999 288.094 92.9999 288.094 129C288.094 171.667 302.76 206.333 332.094 233C362.76 258.333 402.094 278.333 450.094 293C499.427 307.667 554.094 322.333 614.094 337C674.094 350.333 733.427 365.667 792.094 383C852.094 400.333 906.094 423 954.094 451C1003.43 479 1042.76 517 1072.09 565C1102.76 613 1118.09 673.667 1118.09 747C1118.09 821.667 1097.43 891 1056.09 955C1016.09 1017.67 954.094 1068.33 870.094 1107C786.094 1144.33 680.094 1163 552.094 1163Z" fill="#03CE60" fill-opacity="0.05"/>
</svg>
