<svg width="1083" height="1108" viewBox="0 0 1083 1108" fill="none" xmlns="http://www.w3.org/2000/svg">
<path d="M600.18 1108C484.18 1108 380.846 1084.67 290.18 1038C199.513 990 128.18 924 76.1797 840C25.513 756 0.179691 660.667 0.179691 554C0.179691 446 25.513 350.667 76.1797 268C128.18 184 199.513 118.667 290.18 71.9999C380.846 24 484.18 -7.62939e-06 600.18 -7.62939e-06C713.513 -7.62939e-06 812.18 24 896.18 71.9999C980.18 118.667 1042.18 186 1082.18 274L840.18 404C812.18 353.333 776.846 316 734.18 292C692.846 268 647.513 256 598.18 256C544.846 256 496.846 268 454.18 292C411.513 316 377.513 350 352.18 394C328.18 438 316.18 491.333 316.18 554C316.18 616.667 328.18 670 352.18 714C377.513 758 411.513 792 454.18 816C496.846 840 544.846 852 598.18 852C647.513 852 692.846 840.667 734.18 818C776.846 794 812.18 756 840.18 704L1082.18 836C1042.18 922.667 980.18 990 896.18 1038C812.18 1084.67 713.513 1108 600.18 1108Z" fill="url(#paint0_linear_370_2)" fill-opacity="0.07"/>
<defs>
<linearGradient id="paint0_linear_370_2" x1="-200.593" y1="32" x2="996.745" y2="863.376" gradientUnits="userSpaceOnUse">
<stop stop-color="#35C25C" stop-opacity="0"/>
<stop offset="0.333333" stop-color="#00FF19" stop-opacity="0.8"/>
<stop offset="1" stop-color="#0500FF"/>
</linearGradient>
</defs>
</svg>
