<svg width="1135" height="1108" viewBox="0 0 1135 1108" fill="none" xmlns="http://www.w3.org/2000/svg">
<path d="M614.141 1108C491.474 1108 383.474 1084 290.141 1036C198.141 988 126.807 922.667 76.1406 840C25.474 756 0.140628 660.667 0.140628 554C0.140628 446 24.8073 350.667 74.1406 268C124.807 184 193.474 118.667 280.141 71.9999C366.807 24 464.807 -7.62939e-06 574.141 -7.62939e-06C679.474 -7.62939e-06 774.141 22.6666 858.141 68C943.474 112 1010.81 176 1060.14 260C1109.47 342.667 1134.14 442 1134.14 558C1134.14 570 1133.47 584 1132.14 600C1130.81 614.667 1129.47 628.667 1128.14 642H254.141V460H964.141L844.141 514C844.141 458 832.807 409.333 810.141 368C787.474 326.667 756.141 294.667 716.141 272C676.141 248 629.474 236 576.141 236C522.807 236 475.474 248 434.141 272C394.141 294.667 362.807 327.333 340.141 370C317.474 411.333 306.141 460.667 306.141 518V566C306.141 624.667 318.807 676.667 344.141 722C370.807 766 407.474 800 454.141 824C502.141 846.667 558.141 858 622.141 858C679.474 858 729.474 849.333 772.141 832C816.141 814.667 856.141 788.667 892.141 754L1058.14 934C1008.81 990 946.807 1033.33 872.141 1064C797.474 1093.33 711.474 1108 614.141 1108Z" fill="url(#paint0_linear_370_2)" fill-opacity="0.07"/>
<defs>
<linearGradient id="paint0_linear_370_2" x1="-209.838" y1="32" x2="1012.88" y2="938.458" gradientUnits="userSpaceOnUse">
<stop stop-color="#35C25C" stop-opacity="0"/>
<stop offset="0.333333" stop-color="#001AFF" stop-opacity="0.8"/>
<stop offset="1" stop-color="#FFB800"/>
</linearGradient>
</defs>
</svg>
