<svg width="1819" height="1092" viewBox="0 0 1819 1092" fill="none" xmlns="http://www.w3.org/2000/svg">
<path d="M1378.17 -7.62939e-06C1463.51 -7.62939e-06 1538.84 17.3333 1604.17 51.9999C1670.84 85.3333 1722.84 137.333 1760.17 208C1798.84 277.333 1818.17 366.667 1818.17 476V1092H1506.17V524C1506.17 437.333 1488.17 373.333 1452.17 332C1416.17 290.667 1365.51 270 1300.17 270C1254.84 270 1214.17 280.667 1178.17 302C1142.17 322 1114.17 352.667 1094.17 394C1074.17 435.333 1064.17 488 1064.17 552V1092H752.172V524C752.172 437.333 734.172 373.333 698.172 332C663.505 290.667 613.505 270 548.172 270C502.839 270 462.172 280.667 426.172 302C390.172 322 362.172 352.667 342.172 394C322.172 435.333 312.172 488 312.172 552V1092H0.171884V15.9999H298.172V310L242.172 224C279.505 150.667 332.172 95.3333 400.172 58C469.505 19.3333 548.172 -7.62939e-06 636.172 -7.62939e-06C734.839 -7.62939e-06 820.839 25.3333 894.172 76C968.839 125.333 1018.17 201.333 1042.17 304L932.172 274C968.172 190 1025.51 123.333 1104.17 74C1184.17 24.6667 1275.51 -7.62939e-06 1378.17 -7.62939e-06Z" fill="url(#paint0_linear_370_2)" fill-opacity="0.07"/>
<defs>
<linearGradient id="paint0_linear_370_2" x1="-386.446" y1="32" x2="864.026" y2="1573.14" gradientUnits="userSpaceOnUse">
<stop stop-color="#35C25C" stop-opacity="0"/>
<stop offset="0.333333" stop-color="#FF0000" stop-opacity="0.8"/>
<stop offset="1" stop-color="#CC00FF"/>
</linearGradient>
</defs>
</svg>
