<svg width="1101" height="1092" viewBox="0 0 1101 1092" fill="none" xmlns="http://www.w3.org/2000/svg">
<path d="M654.094 -7.62939e-06C739.427 -7.62939e-06 815.427 17.3333 882.094 51.9999C950.094 85.3333 1003.43 137.333 1042.09 208C1080.76 277.333 1100.09 366.667 1100.09 476V1092H788.094V524C788.094 437.333 768.76 373.333 730.094 332C692.76 290.667 639.427 270 570.094 270C520.76 270 476.094 280.667 436.094 302C397.427 322 366.76 353.333 344.094 396C322.76 438.667 312.094 493.333 312.094 560V1092H0.0937587V15.9999H298.094V314L242.094 224C280.76 152 336.094 96.6666 408.094 58C480.094 19.3333 562.094 -7.62939e-06 654.094 -7.62939e-06Z" fill="url(#paint0_linear_370_2)" fill-opacity="0.07"/>
<defs>
<linearGradient id="paint0_linear_370_2" x1="-303.82" y1="32" x2="946.98" y2="1048.19" gradientUnits="userSpaceOnUse">
<stop stop-color="#35C25C" stop-opacity="0"/>
<stop offset="0.333333" stop-color="#FF0000" stop-opacity="0.8"/>
<stop offset="1" stop-color="#CC00FF"/>
</linearGradient>
</defs>
</svg>
