<svg width="1023" height="1108" viewBox="0 0 1023 1108" fill="none" xmlns="http://www.w3.org/2000/svg">
<path d="M730.313 1092V882L710.313 836V460C710.313 393.333 689.646 341.333 648.313 304C608.313 266.667 546.313 248 462.313 248C404.979 248 348.313 257.333 292.313 276C237.646 293.333 190.979 317.333 152.313 348L40.3125 130C98.9792 88.6666 169.646 56.6666 252.313 33.9999C334.979 11.3333 418.979 -7.62939e-06 504.313 -7.62939e-06C668.313 -7.62939e-06 795.646 38.6666 886.313 116C976.979 193.333 1022.31 314 1022.31 478V1092H730.313ZM402.313 1108C318.313 1108 246.313 1094 186.313 1066C126.313 1036.67 80.3125 997.333 48.3125 948C16.3125 898.667 0.312501 843.333 0.312501 782C0.312501 718 15.6458 662 46.3125 614C78.3125 566 128.313 528.667 196.313 502C264.313 474 352.979 460 462.313 460H748.313V642H496.313C422.979 642 372.313 654 344.313 678C317.646 702 304.313 732 304.313 768C304.313 808 319.646 840 350.313 864C382.313 886.667 425.646 898 480.313 898C532.313 898 578.979 886 620.313 862C661.646 836.667 691.646 800 710.313 752L758.313 896C735.646 965.333 694.313 1018 634.313 1054C574.313 1090 496.979 1108 402.313 1108Z" fill="url(#paint0_linear_370_2)" fill-opacity="0.07"/>
<defs>
<linearGradient id="paint0_linear_370_2" x1="-216.717" y1="32" x2="998.076" y2="913.318" gradientUnits="userSpaceOnUse">
<stop stop-color="#35C25C" stop-opacity="0"/>
<stop offset="0.333333" stop-color="#00FF19" stop-opacity="0.8"/>
<stop offset="1" stop-color="#FF0000"/>
</linearGradient>
</defs>
</svg>
