<svg width="1183" height="1108" viewBox="0 0 1183 1108" fill="none" xmlns="http://www.w3.org/2000/svg">
<path d="M592.227 1108C477.56 1108 375.56 1084 286.227 1036C198.227 988 128.227 922.667 76.2266 840C25.5599 756 0.226566 660.667 0.226566 554C0.226566 446 25.5599 350.667 76.2266 268C128.227 184 198.227 118.667 286.227 71.9999C375.56 24 477.56 -7.62939e-06 592.227 -7.62939e-06C705.56 -7.62939e-06 806.893 24 896.227 71.9999C985.56 118.667 1055.56 183.333 1106.23 266C1156.89 348.667 1182.23 444.667 1182.23 554C1182.23 660.667 1156.89 756 1106.23 840C1055.56 922.667 985.56 988 896.227 1036C806.893 1084 705.56 1108 592.227 1108ZM592.227 852C644.227 852 690.893 840 732.227 816C773.56 792 806.227 758 830.227 714C854.227 668.667 866.227 615.333 866.227 554C866.227 491.333 854.227 438 830.227 394C806.227 350 773.56 316 732.227 292C690.893 268 644.227 256 592.227 256C540.227 256 493.56 268 452.227 292C410.893 316 377.56 350 352.227 394C328.227 438 316.227 491.333 316.227 554C316.227 615.333 328.227 668.667 352.227 714C377.56 758 410.893 792 452.227 816C493.56 840 540.227 852 592.227 852Z" fill="url(#paint0_linear_370_2)" fill-opacity="0.07"/>
<defs>
<linearGradient id="paint0_linear_370_2" x1="-215.5" y1="32" x2="1020" y2="983.5" gradientUnits="userSpaceOnUse">
<stop stop-color="#1400FF" stop-opacity="0"/>
<stop offset="0.192708" stop-color="#BD00FF" stop-opacity="0.213542"/>
<stop offset="1" stop-color="#001AFF"/>
</linearGradient>
</defs>
</svg>
