<svg width="1173" height="1480" viewBox="0 0 1173 1480" fill="none" xmlns="http://www.w3.org/2000/svg">
<path d="M636.07 1108C545.404 1108 466.07 1088 398.07 1048C330.07 1008 276.737 947.333 238.07 866C200.737 783.333 182.07 679.333 182.07 554C182.07 427.333 200.07 323.333 236.07 242C272.07 160.667 324.07 99.9999 392.07 59.9999C460.07 20 541.404 -7.62939e-06 636.07 -7.62939e-06C737.404 -7.62939e-06 828.07 23.3333 908.07 69.9999C989.404 115.333 1053.4 179.333 1100.07 262C1148.07 344.667 1172.07 442 1172.07 554C1172.07 667.333 1148.07 765.333 1100.07 848C1053.4 930.667 989.404 994.667 908.07 1040C828.07 1085.33 737.404 1108 636.07 1108ZM0.0703212 1480V15.9999H298.07V236L292.07 556L312.07 874V1480H0.0703212ZM582.07 852C634.07 852 680.07 840 720.07 816C761.404 792 794.07 758 818.07 714C843.404 668.667 856.07 615.333 856.07 554C856.07 491.333 843.404 438 818.07 394C794.07 350 761.404 316 720.07 292C680.07 268 634.07 256 582.07 256C530.07 256 483.404 268 442.07 292C400.737 316 368.07 350 344.07 394C320.07 438 308.07 491.333 308.07 554C308.07 615.333 320.07 668.667 344.07 714C368.07 758 400.737 792 442.07 816C483.404 840 530.07 852 582.07 852Z" fill="url(#paint0_linear_370_2)" fill-opacity="0.07"/>
<defs>
<linearGradient id="paint0_linear_370_2" x1="-303.589" y1="32" x2="946.839" y2="1046.42" gradientUnits="userSpaceOnUse">
<stop stop-color="#35C25C" stop-opacity="0"/>
<stop offset="0.333333" stop-color="#FF0000" stop-opacity="0.8"/>
<stop offset="1" stop-color="#CC00FF"/>
</linearGradient>
</defs>
</svg>
