<svg width="975" height="1108" viewBox="0 0 975 1108" fill="none" xmlns="http://www.w3.org/2000/svg">
<path d="M466.25 1108C374.25 1108 285.583 1097.33 200.25 1076C116.25 1053.33 49.5833 1025.33 0.250003 992L104.25 768C153.583 798.667 211.583 824 278.25 844C346.25 862.667 412.917 872 478.25 872C550.25 872 600.917 863.333 630.25 846C660.917 828.667 676.25 804.667 676.25 774C676.25 748.667 664.25 730 640.25 718C617.583 704.667 586.917 694.667 548.25 688C509.583 681.333 466.917 674.667 420.25 668C374.917 661.333 328.917 652.667 282.25 642C235.583 630 192.917 612.667 154.25 590C115.583 567.333 84.25 536.667 60.25 498C37.5833 459.333 26.25 409.333 26.25 348C26.25 280 45.5833 220 84.25 168C124.25 116 181.583 75.3333 256.25 46C330.917 15.3333 420.25 -7.62939e-06 524.25 -7.62939e-06C597.583 -7.62939e-06 672.25 7.99997 748.25 23.9999C824.25 40 887.583 63.3333 938.25 94L834.25 316C782.25 285.333 729.583 264.667 676.25 254C624.25 242 573.583 236 524.25 236C454.917 236 404.25 245.333 372.25 264C340.25 282.667 324.25 306.667 324.25 336C324.25 362.667 335.583 382.667 358.25 396C382.25 409.333 413.583 420 452.25 428C490.917 436 532.917 443.333 578.25 450C624.917 455.333 671.583 464 718.25 476C764.917 488 806.917 505.333 844.25 528C882.917 549.333 914.25 579.333 938.25 618C962.25 655.333 974.25 704.667 974.25 766C974.25 832.667 954.25 892 914.25 944C874.25 994.667 816.25 1034.67 740.25 1064C665.583 1093.33 574.25 1108 466.25 1108Z" fill="url(#paint0_linear_370_2)" fill-opacity="0.07"/>
<defs>
<linearGradient id="paint0_linear_370_2" x1="-162.841" y1="32" x2="985.374" y2="749.001" gradientUnits="userSpaceOnUse">
<stop stop-color="#00FF47" stop-opacity="0"/>
<stop offset="0.192708" stop-color="#4200FF" stop-opacity="0.8"/>
<stop offset="1" stop-color="#FF0000"/>
</linearGradient>
</defs>
</svg>
