<svg width="1233" height="1480" viewBox="0 0 1233 1480" fill="none" xmlns="http://www.w3.org/2000/svg">
<path d="M300.344 1480C244.344 1480 189.01 1471.33 134.344 1454C79.6771 1436.67 35.0104 1412.67 0.343749 1382L114.344 1160C138.344 1181.33 165.677 1198 196.344 1210C228.344 1222 259.677 1228 290.344 1228C334.344 1228 369.01 1217.33 394.344 1196C421.01 1176 445.01 1142 466.344 1094L522.344 962L546.344 928L932.344 -9.44138e-05H1232.34L746.344 1142C711.677 1228.67 671.677 1296.67 626.344 1346C582.344 1395.33 533.01 1430 478.344 1450C425.01 1470 365.677 1480 300.344 1480ZM484.344 1118L4.34375 -9.44138e-05H326.344L698.344 900L484.344 1118Z" fill="url(#paint0_linear_370_2)" fill-opacity="0.07"/>
<defs>
<linearGradient id="paint0_linear_370_2" x1="-118.211" y1="16" x2="1083.99" y2="860.64" gradientUnits="userSpaceOnUse">
<stop stop-color="#35C25C" stop-opacity="0"/>
<stop offset="0.333333" stop-color="#CC00FF" stop-opacity="0.8"/>
<stop offset="1" stop-color="#FF0000"/>
</linearGradient>
</defs>
</svg>
