<svg width="695" height="1978" viewBox="0 0 695 1978" fill="none" xmlns="http://www.w3.org/2000/svg">
<path d="M250.359 1978C202.359 1978 156.359 1972.67 112.359 1962C68.3594 1952.67 31.026 1938 0.359371 1918L84.3594 1692C120.359 1717.33 164.359 1730 216.359 1730C255.026 1730 285.693 1716.67 308.359 1690C332.359 1664.67 344.359 1626 344.359 1574V498H656.359V1572C656.359 1696 621.026 1794.67 550.359 1868C479.693 1941.33 379.693 1978 250.359 1978ZM500.359 348C443.026 348 396.359 331.333 360.359 298C324.359 264.667 306.359 223.333 306.359 174C306.359 124.667 324.359 83.3333 360.359 50C396.359 16.6666 443.026 -0.000120163 500.359 -0.000120163C557.693 -0.000120163 604.359 15.9999 640.359 48C676.359 78.6666 694.359 118.667 694.359 168C694.359 220 676.359 263.333 640.359 298C605.693 331.333 559.026 348 500.359 348Z" fill="url(#paint0_linear_370_2)" fill-opacity="0.07"/>
<defs>
<linearGradient id="paint0_linear_370_2" x1="115.046" y1="514" x2="930.759" y2="808.218" gradientUnits="userSpaceOnUse">
<stop stop-color="#35C25C" stop-opacity="0"/>
<stop offset="0.333333" stop-color="#00B2FF" stop-opacity="0.8"/>
<stop offset="1" stop-color="#FF002E"/>
</linearGradient>
</defs>
</svg>
