<svg width="1091" height="1092" viewBox="0 0 1091 1092" fill="none" xmlns="http://www.w3.org/2000/svg">
<path d="M460.477 1092C371.143 1092 291.143 1074.67 220.477 1040C151.143 1005.33 97.1432 952.667 58.4766 882C19.8099 810 0.476574 718.667 0.476574 608V-9.44138e-05H312.477V562C312.477 651.333 331.143 717.333 368.477 760C407.143 801.333 461.143 822 530.477 822C578.477 822 621.143 812 658.477 792C695.81 770.667 725.143 738.667 746.477 696C767.81 652 778.477 597.333 778.477 532V-9.44138e-05H1090.48V1076H794.477V780L848.477 866C812.477 940.667 759.143 997.333 688.477 1036C619.143 1073.33 543.143 1092 460.477 1092Z" fill="url(#paint0_linear_370_2)" fill-opacity="0.07"/>
<defs>
<linearGradient id="paint0_linear_370_2" x1="-296.78" y1="16" x2="952.323" y2="1024.2" gradientUnits="userSpaceOnUse">
<stop stop-color="#35C25C" stop-opacity="0"/>
<stop offset="0.333333" stop-color="#0066FF" stop-opacity="0.8"/>
<stop offset="1" stop-color="#EB00FF"/>
</linearGradient>
</defs>
</svg>
