<svg width="1101" height="1484" viewBox="0 0 1101 1484" fill="none" xmlns="http://www.w3.org/2000/svg">
<path d="M654.094 392C739.427 392 815.427 409.333 882.094 444C950.094 477.333 1003.43 529.333 1042.09 600C1080.76 669.333 1100.09 758.667 1100.09 868V1484H788.094V916C788.094 829.333 768.76 765.333 730.094 724C692.76 682.667 639.427 662 570.094 662C520.76 662 476.094 672.667 436.094 694C397.427 714 366.76 745.333 344.094 788C322.76 830.667 312.094 885.333 312.094 952V1484H0.0937587V-8.67844e-05H312.094V706L242.094 616C280.76 544 336.094 488.667 408.094 450C480.094 411.333 562.094 392 654.094 392Z" fill="url(#paint0_linear_370_2)" fill-opacity="0.07"/>
<defs>
<linearGradient id="paint0_linear_370_2" x1="-303.82" y1="424" x2="946.98" y2="1440.19" gradientUnits="userSpaceOnUse">
<stop stop-color="#35C25C" stop-opacity="0"/>
<stop offset="0.333333" stop-color="#00B2FF" stop-opacity="0.8"/>
<stop offset="1" stop-color="#FF002E"/>
</linearGradient>
</defs>
</svg>
