<svg width="500" height="500" viewBox="0 0 500 500" fill="none" xmlns="http://www.w3.org/2000/svg">
<g clip-path="url(#clip0_448_2)">
<rect width="500" height="500" fill="white"/>
<rect width="500" height="500" fill="white"/>
<path d="M84.0498 349.913C70.5807 325.365 60.8873 300.077 54.9698 274.047C49.3444 247.857 48.0238 225.009 51.0079 205.501L117.715 200.267C115.579 218.549 116.333 238.286 119.978 259.48C124.075 280.805 131.174 300.673 141.276 319.084C148.972 333.111 156.461 343.64 163.741 350.672C171.474 357.835 178.946 362.1 186.159 363.465C193.372 364.831 200.193 363.749 206.622 360.222C214.805 355.732 219.47 348.99 220.618 339.995C222.058 330.84 221.353 320.201 218.503 308.077C215.945 295.793 212.454 282.5 208.029 268.199C204.056 254.029 200.588 239.393 197.624 224.29C194.82 209.479 193.747 195.049 194.403 181.001C195.06 166.953 198.805 153.682 205.637 141.189C212.63 128.987 224.309 118.397 240.674 109.417C258.208 99.7963 276.7 95.7332 296.15 97.2276C316.053 98.854 335.454 106.84 354.351 121.185C373.701 135.662 391.313 157.366 407.187 186.297C417.77 205.584 425.855 225.862 431.441 247.131C437.32 268.239 439.658 288.438 438.456 307.728L372.513 315.394C372.838 296.585 370.972 278.979 366.914 262.575C363.149 246.011 357.498 230.861 349.961 217.126C342.425 203.391 334.644 193.022 326.619 186.019C318.594 179.016 310.91 175.058 303.565 174.145C296.512 173.072 289.626 174.379 282.904 178.067C275.014 182.397 270.349 189.139 268.908 198.294C267.76 207.288 268.611 217.848 271.461 229.972C274.311 242.095 277.723 255.242 281.695 269.412C285.828 283.873 289.443 298.429 292.539 313.08C295.795 328.023 297.095 342.518 296.438 356.566C295.781 370.614 291.957 383.739 284.964 395.94C278.131 408.434 266.679 419.091 250.606 427.91C233.364 437.37 214.938 441.207 195.327 439.42C175.716 437.634 156.236 429.502 136.886 415.025C117.697 400.84 100.084 379.136 84.0498 349.913Z" fill="url(#paint0_linear_448_2)"/>
</g>
<defs>
<linearGradient id="paint0_linear_448_2" x1="617.014" y1="168.151" x2="74.8017" y2="353.847" gradientUnits="userSpaceOnUse">
<stop stop-color="#8277C4" stop-opacity="0"/>
<stop offset="1" stop-color="#462AF5"/>
</linearGradient>
<clipPath id="clip0_448_2">
<rect width="500" height="500" fill="white"/>
</clipPath>
</defs>
</svg>
